<svg width="32" height="32" viewBox="0 0 32 32" fill="none" xmlns="http://www.w3.org/2000/svg">
<g clip-path="url(#clip0_144_291)">
<path d="M17 20C16.448 20 16 19.104 16 18C16 16.896 16.448 16 17 16C17.552 16 18 16.896 18 18C18 19.104 17.552 20 17 20Z" fill="black"/>
<path d="M21.656 0.244044C21.7642 0.338051 21.8509 0.454206 21.9102 0.58464C21.9696 0.715075 22.0002 0.856742 22 1.00004V2.00004H23C23.7956 2.00004 24.5587 2.31611 25.1213 2.87872C25.6839 3.44133 26 4.20439 26 5.00004V30H29C29.2652 30 29.5196 30.1054 29.7071 30.2929C29.8946 30.4805 30 30.7348 30 31C30 31.2653 29.8946 31.5196 29.7071 31.7072C29.5196 31.8947 29.2652 32 29 32H3C2.73478 32 2.48043 31.8947 2.29289 31.7072C2.10536 31.5196 2 31.2653 2 31C2 30.7348 2.10536 30.4805 2.29289 30.2929C2.48043 30.1054 2.73478 30 3 30H6V3.00004C6.00004 2.75911 6.08706 2.52629 6.24507 2.34439C6.40307 2.1625 6.62144 2.04378 6.86 2.01004L20.86 0.0100443C21.0017 -0.0101918 21.1461 0.000226878 21.2834 0.0405962C21.4207 0.0809655 21.5478 0.150345 21.656 0.244044V0.244044ZM23 4.00004H22V30H24V5.00004C24 4.73483 23.8946 4.48047 23.7071 4.29294C23.5196 4.1054 23.2652 4.00004 23 4.00004V4.00004ZM8 3.86804V30H20V2.15404L8 3.86804Z" fill="black"/>
</g>
<defs>
<clipPath id="clip0_144_291">
<rect width="32" height="32" fill="white"/>
</clipPath>
</defs>
</svg>
