<svg width="24" height="24" viewBox="0 0 24 24" fill="none" xmlns="http://www.w3.org/2000/svg">
<path d="M20.5747 9.4978L19.4906 10.6421L21.573 11.638L22.657 10.4937L20.5747 9.4978ZM16.0595 9.00111L18.0686 9.962L19.1527 8.81774L17.1843 7.8763L16.0595 9.00111ZM14.4274 15.9865L15.7644 17.7692L16.8109 16.6646L15.4739 14.8819L14.4274 15.9865ZM14.5609 13.6646L13.2045 11.8561L12.1331 12.9275L13.5144 14.7692L14.5609 13.6646ZM14.0973 10.9633L15.8168 12.3389L16.8521 11.2461L15.1645 9.8961L14.0973 10.9633ZM16.9922 13.2793L18.7135 14.6563L19.7488 13.5635L18.0275 12.1865L16.9922 13.2793ZM16.3447 4.71969L15.1147 5.94965L13.956 4.79099C13.4702 4.30518 12.8935 3.91982 12.2588 3.6569C11.624 3.39399 10.9437 3.25867 10.2567 3.25867C9.56966 3.25867 8.88936 3.39399 8.25462 3.6569C7.61988 3.91982 7.04315 4.30518 6.55734 4.79099C6.54131 4.80697 6.5258 4.82329 6.51005 4.83946C5.96269 4.45385 5.31992 4.226 4.6519 4.18078C3.98388 4.13555 3.31627 4.27469 2.72193 4.58301C2.1276 4.89133 1.62937 5.35698 1.28163 5.92915C0.933882 6.50131 0.749983 7.158 0.75 7.82755V19.125H2.25V7.82755C2.24999 7.43474 2.35734 7.04939 2.56046 6.71316C2.76357 6.37694 3.05472 6.10262 3.40244 5.91986C3.75015 5.73711 4.1412 5.65286 4.53332 5.67624C4.92544 5.69961 5.30371 5.82972 5.62725 6.05249C5.10831 7.04114 4.91867 8.16968 5.08597 9.27364C5.25328 10.3776 5.76878 11.3993 6.55734 12.1898L7.71595 13.3484L6.5947 14.4697L7.5322 15.4072L17.2822 5.65719L16.3447 4.71969Z" fill="black"/>
<path d="M8.67225 12.1833L7.61807 11.1291C6.92504 10.4279 6.53766 9.48091 6.54054 8.495C6.54343 7.50909 6.93635 6.56439 7.63349 5.86723C8.33062 5.17007 9.27532 4.77711 10.2612 4.77419C11.2471 4.77126 12.1941 5.15861 12.8954 5.85162L13.9496 6.90584L8.67225 12.1833Z" fill="black"/>
</svg>
