<svg width="24" height="24" viewBox="0 0 24 24" fill="none" xmlns="http://www.w3.org/2000/svg">
<path d="M19.5 10.5H9.75V16.154H8.71153V14.2321C8.71033 13.1432 8.27724 12.0993 7.50728 11.3293C6.73732 10.5593 5.69338 10.1262 4.60448 10.125H2.25V7.125H0.75V23.25H2.25V21.012L21.75 21.168V23.25H23.25V14.25C23.2489 13.2558 22.8534 12.3026 22.1504 11.5996C21.4474 10.8966 20.4942 10.5011 19.5 10.5Z" fill="black"/>
<path d="M2.25 11.625H4.60448C5.29568 11.6258 5.95833 11.9007 6.44708 12.3894C6.93583 12.8782 7.21075 13.5409 7.21153 14.232V16.1539H2.25V11.625ZM21.75 19.668L2.25 19.512V17.654H21.75V19.668ZM21.75 16.154H11.25V12H19.5C20.0965 12.0007 20.6684 12.238 21.0902 12.6598C21.512 13.0816 21.7493 13.6535 21.75 14.25V16.154Z" fill="white"/>
</svg>
