<svg width="24" height="24" viewBox="0 0 24 24" fill="none" xmlns="http://www.w3.org/2000/svg">
<path d="M14.28 10.08C15.84 10.08 16.8 7.79998 16.8 6.35998C16.8 5.15998 16.2 3.71998 15 3.71998C13.44 3.71998 12.48 5.99998 12.48 7.43998C12.48 8.63998 13.08 10.08 14.28 10.08ZM9.71996 10.08C10.92 10.08 11.52 8.63998 11.52 7.43998C11.52 5.87998 10.56 3.59998 8.99996 3.59998C7.79996 3.59998 7.19996 5.03998 7.19996 6.23998C7.07996 7.79998 8.03996 10.08 9.71996 10.08ZM18.6 8.87998C17.04 8.87998 15.96 11.04 15.96 12.6C15.96 13.68 16.44 14.76 17.52 14.76C19.08 14.76 20.16 12.6 20.16 11.04C20.16 9.95998 19.56 8.87998 18.6 8.87998ZM8.15996 12.6C8.15996 11.04 6.95996 8.87998 5.51996 8.87998C4.43996 8.87998 3.95996 9.95998 3.95996 11.04C3.95996 12.6 5.15996 14.76 6.59996 14.76C7.67996 14.76 8.15996 13.68 8.15996 12.6ZM12 12.36C9.59996 12.36 6.35996 16.2 6.35996 18.84C6.35996 20.04 7.19996 20.4 8.15996 20.4C9.59996 20.4 10.68 19.44 12 19.44C13.2 19.44 14.28 20.4 15.6 20.4C16.56 20.4 17.64 20.16 17.64 18.84C17.64 16.2 14.4 12.36 12 12.36Z" fill="black"/>
</svg>
