<svg width="24" height="25" viewBox="0 0 24 25" fill="none" xmlns="http://www.w3.org/2000/svg">
<path d="M12.7199 11.2998C12.2399 11.1798 11.7599 10.9398 11.3999 10.5798C11.0399 10.4598 10.9199 10.0998 10.9199 9.85981C10.9199 9.61981 11.0399 9.2598 11.2799 9.1398C11.6399 8.8998 11.9999 8.6598 12.3599 8.7798C13.0799 8.7798 13.6799 9.1398 14.0399 9.6198L15.1199 8.1798C14.7599 7.8198 14.3999 7.5798 14.0399 7.3398C13.6799 7.0998 13.1999 6.9798 12.7199 6.9798V5.2998H11.2799V6.9798C10.6799 7.0998 10.0799 7.4598 9.59991 7.9398C9.11991 8.5398 8.75991 9.2598 8.87991 9.9798C8.87991 10.6998 9.11991 11.4198 9.59991 11.8998C10.1999 12.4998 11.0399 12.8598 11.7599 13.2198C12.1199 13.3398 12.5999 13.5798 12.9599 13.8198C13.1999 14.0598 13.3199 14.4198 13.3199 14.7798C13.3199 15.1398 13.1999 15.4998 12.9599 15.8598C12.5999 16.2198 12.1199 16.3398 11.7599 16.3398C11.2799 16.3398 10.6799 16.2198 10.3199 15.8598C9.95991 15.6198 9.59991 15.2598 9.35991 14.8998L8.15991 16.2198C8.51991 16.6998 8.87991 17.0598 9.35991 17.4198C9.95991 17.7798 10.6799 18.1398 11.3999 18.1398V19.6998H12.7199V17.8998C13.4399 17.7798 14.0399 17.4198 14.5199 16.9398C15.1199 16.3398 15.4799 15.3798 15.4799 14.5398C15.4799 13.8198 15.2399 12.9798 14.6399 12.4998C14.0399 11.8998 13.4399 11.5398 12.7199 11.2998V11.2998Z" fill="black"/>
<path d="M11.9999 2.8999C6.7199 2.8999 2.3999 7.2199 2.3999 12.4999C2.3999 17.7799 6.7199 22.0999 11.9999 22.0999C17.2799 22.0999 21.5999 17.7799 21.5999 12.4999C21.5999 7.2199 17.2799 2.8999 11.9999 2.8999ZM11.9999 20.7799C7.4399 20.7799 3.7199 17.0599 3.7199 12.4999C3.7199 7.9399 7.4399 4.2199 11.9999 4.2199C16.5599 4.2199 20.2799 7.9399 20.2799 12.4999C20.2799 17.0599 16.5599 20.7799 11.9999 20.7799V20.7799Z" fill="black"/>
</svg>
